<?xml version="1.0" standalone="no"?>
<!DOCTYPE svg PUBLIC "-//W3C//DTD SVG 20010904//EN"
 "http://www.w3.org/TR/2001/REC-SVG-20010904/DTD/svg10.dtd">
<svg version="1.0" xmlns="http://www.w3.org/2000/svg"
 width="512.000000pt" height="512.000000pt" viewBox="0 0 512.000000 512.000000"
 preserveAspectRatio="xMidYMid meet">

<g transform="translate(0.000000,512.000000) scale(0.100000,-0.100000)"
fill="#000000" stroke="none">
<path d="M2370 5106 c-319 -69 -559 -308 -626 -625 -8 -38 -14 -125 -14 -203
l0 -137 -29 -15 c-47 -25 -118 -112 -137 -168 -20 -62 -15 -167 11 -218 51
-100 143 -163 256 -176 57 -6 59 -7 59 -36 0 -47 29 -147 61 -212 55 -111 142
-208 231 -260 36 -20 38 -24 38 -72 l0 -51 -232 -5 c-208 -4 -240 -7 -298 -27
-167 -58 -289 -180 -342 -340 -19 -59 -22 -93 -26 -329 l-4 -262 -252 0 c-295
0 -331 -7 -403 -73 -26 -23 -57 -64 -69 -92 l-24 -50 0 -446 0 -446 23 -21
c31 -29 72 -28 102 3 l25 24 0 429 0 429 23 34 c14 22 37 39 62 47 32 11 368
13 1770 10 1632 -3 1732 -4 1762 -21 56 -30 63 -56 63 -242 0 -165 0 -166 26
-192 20 -20 31 -24 57 -19 65 13 67 19 67 225 0 174 -2 189 -24 236 -12 28
-43 69 -69 92 -74 68 -104 73 -444 73 l-293 0 0 253 c0 280 -7 325 -62 429
-61 114 -191 217 -322 255 -36 11 -121 17 -283 20 l-233 5 0 48 c0 46 1 48 54
83 149 99 257 269 281 444 l7 51 56 6 c149 17 261 127 279 274 11 99 -45 215
-135 275 l-42 28 0 112 c0 140 -13 230 -46 331 -32 94 -51 116 -102 116 -31 0
-41 5 -54 28 -9 15 -34 48 -56 73 -37 41 -40 49 -35 87 5 37 2 44 -28 72 -43
39 -195 114 -274 135 -84 22 -274 28 -355 11z m546 -973 l94 -78 0 -252 c0
-146 -5 -274 -11 -305 -47 -223 -248 -388 -474 -388 -177 0 -338 92 -423 242
-56 99 -62 137 -62 408 l0 247 183 6 c254 7 373 42 527 156 30 22 59 40 63 41
5 0 51 -35 103 -77z m-1036 -268 l0 -145 -39 0 c-109 0 -179 140 -114 229 25
33 79 61 121 61 l32 0 0 -145z m1386 129 c44 -21 77 -76 77 -128 0 -84 -59
-146 -140 -146 l-43 0 0 145 0 145 36 0 c20 0 51 -7 70 -16z m-741 -1038 c39
0 87 3 108 8 l37 7 0 -78 c0 -98 -19 -138 -81 -171 -51 -27 -104 -24 -151 9
-45 32 -58 68 -58 159 l0 81 38 -7 c20 -5 69 -8 107 -8z m-274 -231 c27 -57
87 -117 147 -147 70 -34 188 -33 258 4 60 31 128 104 144 154 l12 35 246 -3
247 -3 63 -34 c75 -41 135 -103 170 -179 27 -57 27 -59 30 -319 l3 -263 -160
0 -161 0 0 167 c0 157 -1 168 -22 190 -30 33 -80 31 -107 -3 -19 -25 -21 -40
-21 -190 l0 -164 -575 0 -575 0 0 158 c0 106 -4 165 -13 182 -15 30 -54 45
-91 36 -45 -11 -56 -54 -56 -226 l0 -150 -161 0 -161 0 4 253 c4 231 6 257 27
309 29 75 79 138 139 176 89 58 106 61 359 61 l233 1 21 -45z"/>
<path d="M1381 1459 c-51 -20 -50 -15 -51 -466 0 -289 4 -430 11 -446 17 -38
51 -47 172 -47 141 0 220 12 280 40 184 87 283 332 232 574 -42 199 -161 321
-338 347 -81 11 -275 10 -306 -2z m333 -161 c66 -20 121 -83 147 -168 28 -95
24 -240 -10 -315 -51 -114 -119 -154 -262 -155 l-96 0 -6 182 c-4 99 -7 246
-7 325 l0 143 96 0 c53 0 115 -6 138 -12z"/>
<path d="M2363 1463 c-53 -10 -53 -13 -53 -484 0 -430 0 -436 21 -455 19 -17
41 -19 209 -22 157 -3 194 -1 219 13 53 27 54 103 1 130 -22 11 -63 15 -165
15 l-135 0 0 125 0 125 131 0 c72 0 139 4 149 10 43 23 40 116 -5 134 -9 3
-75 6 -146 6 l-129 0 0 125 0 125 145 0 c142 0 147 1 170 25 43 42 28 103 -29
125 -26 10 -335 12 -383 3z"/>
<path d="M3104 1460 c-25 -10 -54 -47 -54 -70 0 -34 285 -835 306 -859 30 -36
94 -36 128 -1 17 18 63 142 160 435 75 226 136 417 136 426 0 9 -9 28 -21 43
-25 32 -79 36 -108 7 -10 -10 -64 -155 -122 -330 -57 -171 -107 -311 -110
-311 -3 0 -52 134 -109 298 -56 163 -109 310 -117 325 -11 21 -53 51 -66 46
-1 0 -12 -4 -23 -9z"/>
<path d="M4444 1138 c-42 -20 -44 -40 -44 -477 l0 -418 -23 -34 c-13 -19 -38
-39 -57 -46 -27 -9 -451 -12 -1763 -12 -1902 -1 -1776 -5 -1817 61 -18 30 -20
50 -20 196 0 160 0 163 -25 187 -31 32 -74 33 -103 2 -21 -22 -22 -32 -21
-203 0 -110 5 -191 12 -211 22 -60 72 -117 128 -148 l54 -30 1795 0 1795 0 42
23 c54 28 104 78 129 128 18 36 19 67 22 479 1 242 0 450 -3 463 -3 14 -19 29
-40 38 -19 8 -36 14 -37 13 -2 0 -13 -5 -24 -11z"/>
</g>
</svg>
